<svg id="Ebene_1" data-name="Ebene 1" xmlns="http://www.w3.org/2000/svg" xmlns:xlink="http://www.w3.org/1999/xlink" viewBox="0 0 50 50"><defs><style>.cls-1{fill:none;}.cls-2{clip-path:url(#clip-path);}.cls-3{opacity:0.3;}.cls-4{clip-path:url(#clip-path-3);}.cls-5{fill:#fff;}</style><clipPath id="clip-path"><rect class="cls-1" x="5" y="5" width="40" height="40"/></clipPath><clipPath id="clip-path-3"><rect class="cls-1" x="-4" y="-2" width="58" height="48"/></clipPath></defs><title>icon_Home Kopie</title><g class="cls-2"><g class="cls-2"><g class="cls-3"><g class="cls-4"><path class="cls-5" d="M25,5A20,20,0,1,0,45,25,20.06,20.06,0,0,0,25,5"/></g></g></g><g class="cls-2"><path class="cls-5" d="M31.8,29H18.2V28c0-2.3,4.5-3.5,6.8-3.5s6.8,1.2,6.8,3.5ZM25,16.9A3.1,3.1,0,1,1,21.9,20,3.05,3.05,0,0,1,25,16.9m7.9-3.8H17a2.26,2.26,0,0,0-2.3,2.3V31.3A2.33,2.33,0,0,0,17,33.6h4.5L24.9,37l3.4-3.4h4.5a2.33,2.33,0,0,0,2.3-2.3V15.4a2.18,2.18,0,0,0-2.2-2.3"/></g></g></svg>