<svg id="Ebene_1" data-name="Ebene 1" xmlns="http://www.w3.org/2000/svg" xmlns:xlink="http://www.w3.org/1999/xlink" viewBox="0 0 50 50"><defs><style>.cls-1{fill:none;}.cls-2{clip-path:url(#clip-path);}.cls-3{opacity:0.3;}.cls-4{clip-path:url(#clip-path-3);}.cls-5{fill:#fff;}</style><clipPath id="clip-path"><rect class="cls-1" x="5" y="5" width="40" height="40"/></clipPath><clipPath id="clip-path-3"><rect class="cls-1" x="-4" y="-2" width="58" height="48"/></clipPath></defs><title>icon_Publicaties</title><g class="cls-2"><g class="cls-2"><g class="cls-3"><g class="cls-4"><path class="cls-5" d="M25,5A20,20,0,1,0,45,25,20.06,20.06,0,0,0,25,5"/></g></g></g></g><g class="cls-2"><path class="cls-5" d="M26.1,26.1H23.8V19.3h2.3Zm0,4.5H23.8V28.3h2.3ZM37.4,25l-2.8-3.2.4-4.2-4.1-.9-2.1-3.6-3.9,1.7L21,13.1l-2.1,3.6-4.1.9.4,4.2L12.4,25l2.8,3.2-.4,4.2,4.1.9L21,36.9l3.9-1.7,3.9,1.7,2.1-3.6,4.1-.9-.4-4.2Z"/></g></svg>