<svg id="Ebene_1" data-name="Ebene 1" xmlns="http://www.w3.org/2000/svg" xmlns:xlink="http://www.w3.org/1999/xlink" viewBox="0 0 50 50"><defs><style>.cls-1{fill:none;}.cls-2{clip-path:url(#clip-path);}.cls-3{opacity:0.3;}.cls-4{clip-path:url(#clip-path-3);}.cls-5{fill:#fff;}</style><clipPath id="clip-path"><rect class="cls-1" x="5" y="5" width="40" height="40"/></clipPath><clipPath id="clip-path-3"><rect class="cls-1" x="-4" y="-2" width="58" height="48"/></clipPath></defs><title>icon_Relations</title><g class="cls-2"><g class="cls-2"><g class="cls-3"><g class="cls-4"><path class="cls-5" d="M25,5A20,20,0,1,0,45,25,20.06,20.06,0,0,0,25,5"/></g></g></g><g class="cls-2"><path class="cls-5" d="M32.6,20.2l-1.7,1.7a6.9,6.9,0,0,1,.8,3.2,6.74,6.74,0,0,1-6.8,6.8V28.5L20.4,33l4.5,4.5V34.1A9.13,9.13,0,0,0,34,25a8.72,8.72,0,0,0-1.4-4.8m-7.6-2v3.4l4.5-4.5L25,12.6V16a9.13,9.13,0,0,0-9.1,9.1,8.72,8.72,0,0,0,1.4,4.8L19,28.2a6.6,6.6,0,0,1-.8-3.2A6.81,6.81,0,0,1,25,18.2"/></g></g></svg>