<svg id="Ebene_1" data-name="Ebene 1" xmlns="http://www.w3.org/2000/svg" xmlns:xlink="http://www.w3.org/1999/xlink" viewBox="0 0 50 50"><defs><style>.cls-1{fill:none;}.cls-2{clip-path:url(#clip-path);}.cls-3{opacity:0.3;}.cls-4{clip-path:url(#clip-path-3);}.cls-5{fill:#fff;}</style><clipPath id="clip-path"><rect class="cls-1" x="5" y="5" width="40" height="40"/></clipPath><clipPath id="clip-path-3"><rect class="cls-1" x="-4" y="-2" width="58" height="48"/></clipPath></defs><title>icon_Pers</title><g class="cls-2"><g class="cls-2"><g class="cls-3"><g class="cls-4"><path class="cls-5" d="M25,5A20,20,0,1,0,45,25,20.06,20.06,0,0,0,25,5"/></g></g></g><g class="cls-2"><path class="cls-5" d="M32.5,30.5H23.4V29.4c0-1.5,3-2.3,4.5-2.3s4.5.8,4.5,2.3v1.1ZM28,21.4a2.3,2.3,0,1,1-2.3,2.3A2.26,2.26,0,0,1,28,21.4M33.6,18H24.5l-2.3-2.3H15.4A2.33,2.33,0,0,0,13.1,18V31.6a2.33,2.33,0,0,0,2.3,2.3H33.5a2.33,2.33,0,0,0,2.3-2.3V20.3A2.13,2.13,0,0,0,33.6,18"/></g></g></svg>