<svg id="Ebene_1" data-name="Ebene 1" xmlns="http://www.w3.org/2000/svg" xmlns:xlink="http://www.w3.org/1999/xlink" viewBox="0 0 50 50"><defs><style>.cls-1{fill:none;}.cls-2{clip-path:url(#clip-path);}.cls-3{opacity:0.3;}.cls-4{clip-path:url(#clip-path-3);}.cls-5{fill:#fff;}</style><clipPath id="clip-path"><rect class="cls-1" x="5" y="5" width="40" height="40"/></clipPath><clipPath id="clip-path-3"><rect class="cls-1" x="-4" y="-2" width="58" height="48"/></clipPath></defs><title>icon_Jobs</title><g class="cls-2"><g class="cls-2"><g class="cls-3"><g class="cls-4"><path class="cls-5" d="M25,5A20,20,0,1,0,45,25,20.06,20.06,0,0,0,25,5"/></g></g></g><g class="cls-2"><path class="cls-5" d="M30.9,25a2.2,2.2,0,0,1-.1.8l1.7,1.3a.44.44,0,0,1,.1.5L31,30.3c-.1.2-.3.2-.5.2l-2-.8a9.13,9.13,0,0,1-1.3.8l-.3,2.1c0,.2-.2.3-.4.3H23.3c-.2,0-.4-.1-.4-.3l-.3-2.1a5.67,5.67,0,0,1-1.3-.8l-2,.8a.37.37,0,0,1-.5-.2l-1.6-2.7c-.1-.2-.1-.4.1-.5L19,25.8c0-.3-.1-.5-.1-.8a2.2,2.2,0,0,1,.1-.8l-1.7-1.3a.44.44,0,0,1-.1-.5l1.6-2.7c.1-.2.3-.2.5-.2l2,.8a9.13,9.13,0,0,1,1.3-.8l.3-2.1c0-.2.2-.3.4-.3h3.2c.2,0,.4.1.4.3l.3,2.1a5.67,5.67,0,0,1,1.3.8l2-.8a.37.37,0,0,1,.5.2l1.6,2.7c.1.2.1.4-.1.5l-1.7,1.3a2.49,2.49,0,0,1,.1.8m2-10.2H17a2.26,2.26,0,0,0-2.3,2.3V33A2.33,2.33,0,0,0,17,35.3H32.9A2.26,2.26,0,0,0,35.2,33V17.1a2.26,2.26,0,0,0-2.3-2.3m-7.9,8a2.3,2.3,0,1,0,2.3,2.3A2.39,2.39,0,0,0,25,22.8"/></g></g></svg>