<svg id="Ebene_1" data-name="Ebene 1" xmlns="http://www.w3.org/2000/svg" xmlns:xlink="http://www.w3.org/1999/xlink" viewBox="0 0 50 50"><defs><style>.cls-1{fill:none;}.cls-2{clip-path:url(#clip-path);}.cls-3{opacity:0.3;}.cls-4{clip-path:url(#clip-path-3);}.cls-5{fill:#fff;}</style><clipPath id="clip-path"><rect class="cls-1" x="5" y="5" width="40" height="40"/></clipPath><clipPath id="clip-path-3"><rect class="cls-1" x="-4" y="-2" width="58" height="48"/></clipPath></defs><title>icon_Links</title><g class="cls-2"><g class="cls-2"><g class="cls-3"><g class="cls-4"><path class="cls-5" d="M25,5A20,20,0,1,0,45,25,20.06,20.06,0,0,0,25,5"/></g></g></g><g class="cls-2"><path class="cls-5" d="M30.6,19.3H26.1v2.2h4.5a3.5,3.5,0,0,1,0,7H26.1v2.2h4.5A5.7,5.7,0,0,0,36.3,25a5.63,5.63,0,0,0-5.7-5.7M20.4,26.1h9.1V23.8H20.4ZM15.8,25a3.54,3.54,0,0,1,3.5-3.5h4.5V19.3H19.3A5.7,5.7,0,0,0,13.6,25a5.63,5.63,0,0,0,5.7,5.7h4.5V28.5H19.3A3.54,3.54,0,0,1,15.8,25"/></g></g></svg>