<?xml version="1.0" encoding="utf-8"?>
<!-- Generator: Adobe Illustrator 23.0.3, SVG Export Plug-In . SVG Version: 6.00 Build 0)  -->
<svg version="1.0" id="Ebene_1" xmlns="http://www.w3.org/2000/svg" xmlns:xlink="http://www.w3.org/1999/xlink" x="0px" y="0px"
	 viewBox="0 0 63 1403" enable-background="new 0 0 63 1403" xml:space="preserve">
<rect x="-9" y="-11" fill="none" width="89" height="1192"/>
<g>
	<g>
		<defs>
			<rect id="SVGID_1_" x="24" y="1128.5" width="17.5" height="17.5"/>
		</defs>
		<clipPath id="SVGID_2_">
			<use xlink:href="#SVGID_1_"  overflow="visible"/>
		</clipPath>
		<path clip-path="url(#SVGID_2_)" fill="#F3F2F0" d="M30.5,1139.5c-2.5,0-4.5-2-4.5-4.5s2-4.5,4.5-4.5s4.5,2,4.5,4.5
			S33,1139.5,30.5,1139.5 M36.5,1139.5h-0.8l-0.3-0.3c1-1.1,1.6-2.6,1.6-4.2c0-3.6-2.9-6.5-6.5-6.5s-6.5,2.9-6.5,6.5
			s2.9,6.5,6.5,6.5c1.6,0,3.1-0.6,4.2-1.6l0.3,0.3v0.8l5,5l1.5-1.5L36.5,1139.5z"/>
	</g>
</g>
<g>
	<defs>
		<rect id="SVGID_3_" x="12.2" y="0.3" width="40" height="40"/>
	</defs>
	<clipPath id="SVGID_4_">
		<use xlink:href="#SVGID_3_"  overflow="visible"/>
	</clipPath>
	<g clip-path="url(#SVGID_4_)">
		<defs>
			<rect id="SVGID_5_" x="12.2" y="0.3" width="40" height="40"/>
		</defs>
		<clipPath id="SVGID_6_">
			<use xlink:href="#SVGID_5_"  overflow="visible"/>
		</clipPath>
		<g opacity="0.3" clip-path="url(#SVGID_6_)">
			<g>
				<defs>
					<rect id="SVGID_7_" x="3.2" y="-6.7" width="58" height="48"/>
				</defs>
				<clipPath id="SVGID_8_">
					<use xlink:href="#SVGID_7_"  overflow="visible"/>
				</clipPath>
				<path clip-path="url(#SVGID_8_)" fill="#FFFFFF" d="M32.2,0.3c-11,0-20,9-20,20s9,20,20,20c11,0,20-9,20-20S43.2,0.3,32.2,0.3"
					/>
			</g>
		</g>
		<path clip-path="url(#SVGID_6_)" fill="#FFFFFF" d="M36.7,18.1h-3.4v3.4H31v-3.4h-3.4v-2.3H31v-3.4h2.3v3.4h3.4V18.1z M32.2,9
			c-4.4,0-7.9,3.6-7.9,7.9c0,6,7.9,14.7,7.9,14.7s7.9-8.8,7.9-14.7C40.1,12.6,36.5,9,32.2,9"/>
	</g>
</g>
<g>
	<defs>
		<rect id="SVGID_9_" x="12.2" y="60.3" width="40" height="40"/>
	</defs>
	<clipPath id="SVGID_10_">
		<use xlink:href="#SVGID_9_"  overflow="visible"/>
	</clipPath>
	<g clip-path="url(#SVGID_10_)">
		<defs>
			<rect id="SVGID_11_" x="12.2" y="60.3" width="40" height="40"/>
		</defs>
		<clipPath id="SVGID_12_">
			<use xlink:href="#SVGID_11_"  overflow="visible"/>
		</clipPath>
		<g opacity="0.3" clip-path="url(#SVGID_12_)">
			<g>
				<defs>
					<rect id="SVGID_13_" x="3.2" y="53.3" width="58" height="48"/>
				</defs>
				<clipPath id="SVGID_14_">
					<use xlink:href="#SVGID_13_"  overflow="visible"/>
				</clipPath>
				<path clip-path="url(#SVGID_14_)" fill="#FFFFFF" d="M32.2,60.3c-11,0-20,9-20,20s9,20,20,20c11,0,20-9,20-20
					S43.2,60.3,32.2,60.3"/>
			</g>
		</g>
		<path clip-path="url(#SVGID_12_)" fill="#FFFFFF" d="M39,84.3H25.4v-1c0-2.3,4.5-3.5,6.8-3.5c2.3,0,6.8,1.2,6.8,3.5V84.3z
			 M32.2,72.2c1.7,0,3.1,1.4,3.1,3.1c0,1.7-1.4,3.1-3.1,3.1c-1.7,0-3.1-1.4-3.1-3.1C29.1,73.5,30.5,72.2,32.2,72.2 M40.1,68.4H24.2
			c-1.3,0-2.3,1-2.3,2.3v15.9c0,1.2,1,2.3,2.3,2.3h4.5l3.4,3.4l3.4-3.4h4.5c1.2,0,2.3-1,2.3-2.3V70.7C42.4,69.4,41.3,68.4,40.1,68.4
			"/>
	</g>
</g>
<g>
	<defs>
		<rect id="SVGID_15_" x="12.2" y="120.3" width="40" height="40"/>
	</defs>
	<clipPath id="SVGID_16_">
		<use xlink:href="#SVGID_15_"  overflow="visible"/>
	</clipPath>
	<g clip-path="url(#SVGID_16_)">
		<defs>
			<rect id="SVGID_17_" x="12.2" y="120.3" width="40" height="40"/>
		</defs>
		<clipPath id="SVGID_18_">
			<use xlink:href="#SVGID_17_"  overflow="visible"/>
		</clipPath>
		<g opacity="0.3" clip-path="url(#SVGID_18_)">
			<g>
				<defs>
					<rect id="SVGID_19_" x="3.2" y="113.3" width="58" height="48"/>
				</defs>
				<clipPath id="SVGID_20_">
					<use xlink:href="#SVGID_19_"  overflow="visible"/>
				</clipPath>
				<path clip-path="url(#SVGID_20_)" fill="#FFFFFF" d="M32.2,120.3c-11,0-20,9-20,20s9,20,20,20c11,0,20-9,20-20
					S43.2,120.3,32.2,120.3"/>
			</g>
		</g>
		<path clip-path="url(#SVGID_18_)" fill="#FFFFFF" d="M39.8,135.5l-1.7,1.7c0.5,1,0.8,2,0.8,3.2c0,3.8-3,6.8-6.8,6.8v-3.4l-4.5,4.5
			l4.5,4.5v-3.4c5,0,9.1-4.1,9.1-9.1C41.2,138.5,40.7,136.9,39.8,135.5 M32.2,133.5v3.4l4.5-4.5l-4.5-4.5v3.4c-5,0-9.1,4.1-9.1,9.1
			c0,1.8,0.5,3.4,1.4,4.8l1.7-1.7c-0.5-0.9-0.8-2-0.8-3.2C25.4,136.6,28.4,133.5,32.2,133.5"/>
	</g>
</g>
<g>
	<defs>
		<rect id="SVGID_21_" x="12.2" y="180.3" width="40" height="40"/>
	</defs>
	<clipPath id="SVGID_22_">
		<use xlink:href="#SVGID_21_"  overflow="visible"/>
	</clipPath>
	<g clip-path="url(#SVGID_22_)">
		<defs>
			<rect id="SVGID_23_" x="12.2" y="180.3" width="40" height="40"/>
		</defs>
		<clipPath id="SVGID_24_">
			<use xlink:href="#SVGID_23_"  overflow="visible"/>
		</clipPath>
		<g opacity="0.3" clip-path="url(#SVGID_24_)">
			<g>
				<defs>
					<rect id="SVGID_25_" x="3.2" y="173.3" width="58" height="48"/>
				</defs>
				<clipPath id="SVGID_26_">
					<use xlink:href="#SVGID_25_"  overflow="visible"/>
				</clipPath>
				<path clip-path="url(#SVGID_26_)" fill="#FFFFFF" d="M32.2,180.3c-11,0-20,9-20,20c0,11,9,20,20,20c11,0,20-9,20-20
					C52.2,189.2,43.2,180.3,32.2,180.3"/>
			</g>
		</g>
	</g>
	<path clip-path="url(#SVGID_22_)" fill="#FFFFFF" d="M36.1,199.7h5.7v-6.8h-5.7V199.7z M29.3,199.7H35v-6.8h-5.7V199.7z
		 M36.1,207.7h5.7v-6.8h-5.7V207.7z M29.3,207.7H35v-6.8h-5.7V207.7z M22.5,207.7h5.7v-6.8h-5.7V207.7z M22.5,199.7h5.7v-6.8h-5.7
		V199.7z"/>
</g>
<g>
	<defs>
		<rect id="SVGID_27_" x="12.2" y="240.3" width="40" height="40"/>
	</defs>
	<clipPath id="SVGID_28_">
		<use xlink:href="#SVGID_27_"  overflow="visible"/>
	</clipPath>
	<g clip-path="url(#SVGID_28_)">
		<defs>
			<rect id="SVGID_29_" x="12.2" y="240.3" width="40" height="40"/>
		</defs>
		<clipPath id="SVGID_30_">
			<use xlink:href="#SVGID_29_"  overflow="visible"/>
		</clipPath>
		<g opacity="0.3" clip-path="url(#SVGID_30_)">
			<g>
				<defs>
					<rect id="SVGID_31_" x="3.2" y="233.3" width="58" height="48"/>
				</defs>
				<clipPath id="SVGID_32_">
					<use xlink:href="#SVGID_31_"  overflow="visible"/>
				</clipPath>
				<path clip-path="url(#SVGID_32_)" fill="#FFFFFF" d="M32.2,240.3c-11,0-20,9-20,20c0,11,9,20,20,20c11,0,20-9,20-20
					C52.2,249.2,43.2,240.3,32.2,240.3"/>
			</g>
		</g>
		<path clip-path="url(#SVGID_30_)" fill="#FFFFFF" d="M31,259.1h2.3v5.7H31V259.1z M31,254.6h2.3v2.3H31V254.6z M25.4,271.6h9.1
			l6.8-6.8l0-13.6c0-1.2-1-2.3-2.3-2.3H25.4c-1.2,0-2.3,1-2.3,2.3v18.1C23.1,270.6,24.1,271.6,25.4,271.6"/>
	</g>
</g>
<g>
	<defs>
		<rect id="SVGID_33_" x="12.2" y="480.2" width="40" height="40"/>
	</defs>
	<clipPath id="SVGID_34_">
		<use xlink:href="#SVGID_33_"  overflow="visible"/>
	</clipPath>
	<g clip-path="url(#SVGID_34_)">
		<defs>
			<rect id="SVGID_35_" x="12.2" y="480.2" width="40" height="40"/>
		</defs>
		<clipPath id="SVGID_36_">
			<use xlink:href="#SVGID_35_"  overflow="visible"/>
		</clipPath>
		<g opacity="0.3" clip-path="url(#SVGID_36_)">
			<g>
				<defs>
					<rect id="SVGID_37_" x="3.2" y="473.2" width="58" height="48"/>
				</defs>
				<clipPath id="SVGID_38_">
					<use xlink:href="#SVGID_37_"  overflow="visible"/>
				</clipPath>
				<path clip-path="url(#SVGID_38_)" fill="#FFFFFF" d="M32.2,480.2c-11,0-20,9-20,20c0,11,9,20,20,20c11,0,20-9,20-20
					C52.2,489.2,43.2,480.2,32.2,480.2"/>
			</g>
		</g>
		<path clip-path="url(#SVGID_36_)" fill="#FFFFFF" d="M40.8,495.9l-9.1,5.7l-9.1-5.7v-2.3l9.1,5.7l9.1-5.7V495.9z M40.8,491.4H22.7
			c-1.2,0-2.3,1-2.3,2.3l0,13.6c0,1.2,1,2.3,2.3,2.3h18.1c1.2,0,2.3-1,2.3-2.3v-13.6C43.1,492.4,42.1,491.4,40.8,491.4"/>
	</g>
</g>
<g>
	<defs>
		<rect id="SVGID_39_" x="12.2" y="360.2" width="40" height="40"/>
	</defs>
	<clipPath id="SVGID_40_">
		<use xlink:href="#SVGID_39_"  overflow="visible"/>
	</clipPath>
	<g clip-path="url(#SVGID_40_)">
		<defs>
			<rect id="SVGID_41_" x="12.2" y="360.2" width="40" height="40"/>
		</defs>
		<clipPath id="SVGID_42_">
			<use xlink:href="#SVGID_41_"  overflow="visible"/>
		</clipPath>
		<g opacity="0.3" clip-path="url(#SVGID_42_)">
			<g>
				<defs>
					<rect id="SVGID_43_" x="3.2" y="353.2" width="58" height="48"/>
				</defs>
				<clipPath id="SVGID_44_">
					<use xlink:href="#SVGID_43_"  overflow="visible"/>
				</clipPath>
				<path clip-path="url(#SVGID_44_)" fill="#FFFFFF" d="M32.2,360.2c-11,0-20,9-20,20c0,11,9,20,20,20c11,0,20-9,20-20
					C52.2,369.2,43.2,360.2,32.2,360.2"/>
			</g>
		</g>
		<path clip-path="url(#SVGID_42_)" fill="#FFFFFF" d="M39.7,385.7h-9.1v-1.1c0-1.5,3-2.3,4.5-2.3s4.5,0.8,4.5,2.3V385.7z
			 M35.2,376.6c1.2,0,2.3,1,2.3,2.3c0,1.2-1,2.3-2.3,2.3c-1.2,0-2.3-1-2.3-2.3C32.9,377.6,33.9,376.6,35.2,376.6 M40.8,373.2h-9.1
			l-2.3-2.3h-6.8c-1.2,0-2.3,1-2.3,2.3l0,13.6c0,1.2,1,2.3,2.3,2.3h18.1c1.2,0,2.3-1,2.3-2.3v-11.3
			C43.1,374.2,42.1,373.2,40.8,373.2"/>
	</g>
</g>
<g>
	<defs>
		<rect id="SVGID_45_" x="12.2" y="420.2" width="40" height="40"/>
	</defs>
	<clipPath id="SVGID_46_">
		<use xlink:href="#SVGID_45_"  overflow="visible"/>
	</clipPath>
	<g clip-path="url(#SVGID_46_)">
		<defs>
			<rect id="SVGID_47_" x="12.2" y="420.2" width="40" height="40"/>
		</defs>
		<clipPath id="SVGID_48_">
			<use xlink:href="#SVGID_47_"  overflow="visible"/>
		</clipPath>
		<g opacity="0.3" clip-path="url(#SVGID_48_)">
			<g>
				<defs>
					<rect id="SVGID_49_" x="3.2" y="413.2" width="58" height="48"/>
				</defs>
				<clipPath id="SVGID_50_">
					<use xlink:href="#SVGID_49_"  overflow="visible"/>
				</clipPath>
				<path clip-path="url(#SVGID_50_)" fill="#FFFFFF" d="M32.2,420.2c-11,0-20,9-20,20c0,11,9,20,20,20c11,0,20-9,20-20
					C52.2,429.2,43.2,420.2,32.2,420.2"/>
			</g>
		</g>
		<path clip-path="url(#SVGID_48_)" fill="#FFFFFF" d="M38.1,440.2c0,0.3,0,0.5-0.1,0.8l1.7,1.3c0.1,0.1,0.2,0.3,0.1,0.5l-1.6,2.7
			c-0.1,0.2-0.3,0.2-0.5,0.2l-2-0.8c-0.4,0.3-0.9,0.6-1.3,0.8l-0.3,2.1c0,0.2-0.2,0.3-0.4,0.3h-3.2c-0.2,0-0.4-0.1-0.4-0.3l-0.3-2.1
			c-0.5-0.2-0.9-0.5-1.3-0.8l-2,0.8c-0.2,0.1-0.4,0-0.5-0.2l-1.6-2.7c-0.1-0.2-0.1-0.4,0.1-0.5l1.7-1.3c0-0.3-0.1-0.5-0.1-0.8
			c0-0.3,0-0.5,0.1-0.8l-1.7-1.3c-0.1-0.1-0.2-0.3-0.1-0.5l1.6-2.7c0.1-0.2,0.3-0.2,0.5-0.2l2,0.8c0.4-0.3,0.9-0.6,1.3-0.8l0.3-2.1
			c0-0.2,0.2-0.3,0.4-0.3h3.2c0.2,0,0.4,0.1,0.4,0.3l0.3,2.1c0.5,0.2,0.9,0.5,1.3,0.8l2-0.8c0.2-0.1,0.4,0,0.5,0.2l1.6,2.7
			c0.1,0.2,0.1,0.4-0.1,0.5l-1.7,1.3C38.1,439.7,38.1,440,38.1,440.2 M40.1,430H24.2c-1.3,0-2.3,1-2.3,2.3v15.9c0,1.2,1,2.3,2.3,2.3
			h15.9c1.3,0,2.3-1,2.3-2.3v-15.9C42.4,431,41.4,430,40.1,430 M32.2,438c-1.2,0-2.3,1-2.3,2.3c0,1.2,1,2.3,2.3,2.3
			c1.2,0,2.3-1,2.3-2.3C34.4,439,33.4,438,32.2,438"/>
	</g>
</g>
<g>
	<defs>
		<rect id="SVGID_51_" x="12.2" y="300.3" width="40" height="40"/>
	</defs>
	<clipPath id="SVGID_52_">
		<use xlink:href="#SVGID_51_"  overflow="visible"/>
	</clipPath>
	<g clip-path="url(#SVGID_52_)">
		<defs>
			<rect id="SVGID_53_" x="12.2" y="300.3" width="40" height="40"/>
		</defs>
		<clipPath id="SVGID_54_">
			<use xlink:href="#SVGID_53_"  overflow="visible"/>
		</clipPath>
		<g opacity="0.3" clip-path="url(#SVGID_54_)">
			<g>
				<defs>
					<rect id="SVGID_55_" x="3.2" y="293.3" width="58" height="48"/>
				</defs>
				<clipPath id="SVGID_56_">
					<use xlink:href="#SVGID_55_"  overflow="visible"/>
				</clipPath>
				<path clip-path="url(#SVGID_56_)" fill="#FFFFFF" d="M32.2,300.3c-11,0-20,9-20,20c0,11,9,20,20,20c11,0,20-9,20-20
					C52.2,309.2,43.2,300.3,32.2,300.3"/>
			</g>
		</g>
	</g>
	<path clip-path="url(#SVGID_52_)" fill="#FFFFFF" d="M33.3,321.4H31v-6.8h2.3V321.4z M33.3,325.9H31v-2.3h2.3V325.9z M44.6,320.3
		l-2.8-3.2l0.4-4.2l-4.1-0.9l-2.1-3.6l-3.9,1.7l-3.9-1.7l-2.1,3.6l-4.1,0.9l0.4,4.2l-2.8,3.2l2.8,3.2l-0.4,4.2l4.1,0.9l2.1,3.6
		l3.9-1.7l3.9,1.7l2.1-3.6l4.1-0.9l-0.4-4.2L44.6,320.3z"/>
</g>
<g>
	<defs>
		<rect id="SVGID_57_" x="12.2" y="540.2" width="40" height="40"/>
	</defs>
	<clipPath id="SVGID_58_">
		<use xlink:href="#SVGID_57_"  overflow="visible"/>
	</clipPath>
	<g clip-path="url(#SVGID_58_)">
		<defs>
			<rect id="SVGID_59_" x="12.2" y="540.2" width="40" height="40"/>
		</defs>
		<clipPath id="SVGID_60_">
			<use xlink:href="#SVGID_59_"  overflow="visible"/>
		</clipPath>
		<g opacity="0.3" clip-path="url(#SVGID_60_)">
			<g>
				<defs>
					<rect id="SVGID_61_" x="3.2" y="533.2" width="58" height="48"/>
				</defs>
				<clipPath id="SVGID_62_">
					<use xlink:href="#SVGID_61_"  overflow="visible"/>
				</clipPath>
				<path clip-path="url(#SVGID_62_)" fill="#FFFFFF" d="M32.2,540.2c-11,0-20,9-20,20c0,11,9,20,20,20c11,0,20-9,20-20
					C52.2,549.2,43.2,540.2,32.2,540.2"/>
			</g>
		</g>
		<path clip-path="url(#SVGID_60_)" fill="#FFFFFF" d="M37.8,554.5h-4.5v2.2h4.5c1.9,0,3.5,1.6,3.5,3.5s-1.6,3.5-3.5,3.5h-4.5v2.2
			h4.5c3.1,0,5.7-2.5,5.7-5.7S41,554.5,37.8,554.5 M27.6,561.3h9.1v-2.3h-9.1V561.3z M23,560.2c0-1.9,1.6-3.5,3.5-3.5H31v-2.2h-4.5
			c-3.1,0-5.7,2.5-5.7,5.7s2.5,5.7,5.7,5.7H31v-2.2h-4.5C24.6,563.7,23,562.1,23,560.2"/>
	</g>
</g>
<g>
	<defs>
		<rect id="SVGID_63_" x="12.2" y="600.2" width="40" height="40"/>
	</defs>
	<clipPath id="SVGID_64_">
		<use xlink:href="#SVGID_63_"  overflow="visible"/>
	</clipPath>
	<g clip-path="url(#SVGID_64_)">
		<defs>
			<rect id="SVGID_65_" x="12.2" y="600.2" width="40" height="40"/>
		</defs>
		<clipPath id="SVGID_66_">
			<use xlink:href="#SVGID_65_"  overflow="visible"/>
		</clipPath>
		<g opacity="0.3" clip-path="url(#SVGID_66_)">
			<g>
				<defs>
					<rect id="SVGID_67_" x="3.2" y="593.2" width="58" height="48"/>
				</defs>
				<clipPath id="SVGID_68_">
					<use xlink:href="#SVGID_67_"  overflow="visible"/>
				</clipPath>
				<path clip-path="url(#SVGID_68_)" fill="#FFFFFF" d="M32.2,600.2c-11,0-20,9-20,20s9,20,20,20c11,0,20-9,20-20
					S43.2,600.2,32.2,600.2"/>
			</g>
		</g>
	</g>
	<polygon clip-path="url(#SVGID_64_)" fill="#FFFFFF" points="32.2,626.7 39.2,631 37.3,623 43.5,617.6 35.3,616.9 32.2,609.4 
		29,616.9 20.8,617.6 27,623 25.2,631 	"/>
</g>
<g>
	<defs>
		<rect id="SVGID_69_" x="12.2" y="660.2" width="40" height="40"/>
	</defs>
	<clipPath id="SVGID_70_">
		<use xlink:href="#SVGID_69_"  overflow="visible"/>
	</clipPath>
	<g clip-path="url(#SVGID_70_)">
		<defs>
			<rect id="SVGID_71_" x="12.2" y="660.2" width="40" height="40"/>
		</defs>
		<clipPath id="SVGID_72_">
			<use xlink:href="#SVGID_71_"  overflow="visible"/>
		</clipPath>
		<g opacity="0.3" clip-path="url(#SVGID_72_)">
			<g>
				<defs>
					<rect id="SVGID_73_" x="3.2" y="653.2" width="58" height="48"/>
				</defs>
				<clipPath id="SVGID_74_">
					<use xlink:href="#SVGID_73_"  overflow="visible"/>
				</clipPath>
				<path clip-path="url(#SVGID_74_)" fill="#FFFFFF" d="M32.2,660.2c-11,0-20,9-20,20c0,11,9,20,20,20c11,0,20-9,20-20
					C52.2,669.1,43.2,660.2,32.2,660.2"/>
			</g>
		</g>
		<path clip-path="url(#SVGID_72_)" fill="#FFFFFF" d="M35.3,675h-7v-2.3c0-1.9,1.6-3.5,3.5-3.5s3.5,1.6,3.5,3.5V675z M31.8,685.2
			c-1.2,0-2.3-1-2.3-2.3s1-2.3,2.3-2.3s2.3,1,2.3,2.3S33,685.2,31.8,685.2 M38.6,675h-1.1v-2.3c0-3.1-2.5-5.7-5.7-5.7
			s-5.7,2.5-5.7,5.7v2.3H25c-1.2,0-2.3,1-2.3,2.3v11.3c0,1.2,1,2.3,2.3,2.3h13.6c1.2,0,2.3-1,2.3-2.3v-11.3
			C40.8,676.1,39.8,675,38.6,675"/>
	</g>
</g>
<g>
	
		<image overflow="visible" opacity="0.4" width="38" height="38" xlink:href="EB52110EE285023E.png"  transform="matrix(1 0 0 1 12 1055)">
	</image>
	<g>
		<g>
			<defs>
				<rect id="SVGID_75_" x="18.2" y="1058.4" width="25" height="25"/>
			</defs>
			<clipPath id="SVGID_76_">
				<use xlink:href="#SVGID_75_"  overflow="visible"/>
			</clipPath>
		</g>
		<g>
			<defs>
				<rect id="SVGID_77_" x="18.2" y="1058.4" width="25" height="25"/>
			</defs>
			<clipPath id="SVGID_78_">
				<use xlink:href="#SVGID_77_"  overflow="visible"/>
			</clipPath>
			<path clip-path="url(#SVGID_78_)" fill="#F7F7F5" d="M30.7,1083.4c6.9,0,12.5-5.6,12.5-12.5c0-6.9-5.6-12.5-12.5-12.5
				s-12.5,5.6-12.5,12.5C18.2,1077.9,23.8,1083.4,30.7,1083.4"/>
		</g>
		<g>
			<defs>
				<rect id="SVGID_79_" x="18.2" y="1058.4" width="25" height="25"/>
			</defs>
			<clipPath id="SVGID_80_">
				<use xlink:href="#SVGID_79_"  overflow="visible"/>
			</clipPath>
		</g>
	</g>
</g>
<polygon fill="#AFBF00" points="30.5,1066.7 29.5,1067.7 32.7,1070.9 29.5,1074.2 30.5,1075.1 34.7,1070.9 "/>
</svg>
