<svg xmlns="http://www.w3.org/2000/svg" viewBox="0 0 679.57 180"><defs><style>.cls-1{fill:#069;}.cls-2{fill:#fff;}</style></defs><title>linkedin</title><g id="Ebene_2" data-name="Ebene 2"><g id="Ebene_1-2" data-name="Ebene 1"><path class="cls-1" d="M500.71,12.89A13.06,13.06,0,0,1,513.92,0H666.35a13,13,0,0,1,13.22,12.89V167.11A13.06,13.06,0,0,1,666.35,180H513.92a13.06,13.06,0,0,1-13.21-12.89V12.89Z"/><path class="cls-2" d="M0,150.77H74.64v-24.5H27V32.76H0Zm112.46,0V69.5h-27v81.27ZM99,58.4c9.4,0,15.28-6.25,15.28-14-.17-8-5.88-14-15.09-14s-15.29,6.06-15.29,14c0,7.8,5.88,14,14.93,14Zm26,92.37h27V105.39a17.8,17.8,0,0,1,.9-6.58c2-4.87,6.39-9.87,13.87-9.87,9.78,0,13.67,7.45,13.67,18.38V150.8h27V104.17c0-25-13.32-36.57-31.1-36.57-14.58,0-21,8.15-24.53,13.7H152V69.5H125C125.35,77.11,125,150.77,125,150.77Zm120.59-118h-27v118h27V124.42l6.75-8.51,21.15,34.86h33.23l-35.54-50.44L302.27,66H269.76s-22.22,30.7-24.18,34.34Z"/><path class="cls-2" d="M379,116.86a65.28,65.28,0,0,0,.9-10.63c0-21-10.66-42.33-38.75-42.33-30,0-43.91,23.76-43.91,45.3,0,26.64,16.89,43.28,46.39,43.28,11.74,0,22.56-1.74,31.46-5.38l-3.57-17.84a73.42,73.42,0,0,1-24,3.62c-12.61,0-23.63-5.19-24.52-16.23l56,.21ZM322.8,98.59c.71-6.93,5.33-17.15,16.89-17.15,12.26,0,15.12,10.93,15.12,17.15ZM446.52,32.76V73.6h-.35c-3.92-5.71-12.1-9.54-22.93-9.54-20.8,0-39.1,16.64-38.93,45.08,0,26.35,16.53,43.53,37.14,43.53,11.2,0,21.86-4.86,27.19-14.22h.54l1.06,12.32h24c-.36-5.71-.71-15.61-.71-25.31V32.76Zm0,80.41a31,31,0,0,1-.54,5.9,15.92,15.92,0,0,1-15.83,12.64c-11.2,0-18.49-9-18.49-23.22,0-13.35,6.23-24.09,18.65-24.09a16,16,0,0,1,15.83,12.83,22.83,22.83,0,0,1,.35,4.87l0,11.07Z"/><path class="cls-2" d="M554.93,150.69V69.39h-27v81.27h27ZM541.44,58.3c9.41,0,15.28-6.26,15.28-14-.19-8-5.87-14.06-15.09-14.06s-15.28,6.06-15.28,14.06c0,7.8,5.87,14,14.93,14Zm28.44,92.39h27V105.28a18.45,18.45,0,0,1,.9-6.58c2-4.87,6.39-9.87,13.86-9.87,9.76,0,13.68,7.45,13.68,18.38v43.48h27V104.08c0-25-13.33-36.57-31.11-36.57-14.57,0-21,8.16-24.52,13.71h.19V69.44h-27c.33,7.59,0,81.25,0,81.25Z"/></g></g></svg>