<svg id="Layer_1" data-name="Layer 1" xmlns="http://www.w3.org/2000/svg" viewBox="0 0 279.5 76.5"><defs><style>.cls-1{fill:#0056a4;}.cls-2{fill:#aec000;}.cls-3{fill:#009da0;}.cls-4{fill:#47397b;}.cls-5,.cls-7{isolation:isolate;}.cls-6,.cls-7{fill:#878787;}.cls-7{font-size:15.62px;font-family:ArialMT, Arial;}</style></defs><title>LogoBVZD</title><circle class="cls-1" cx="47.5" cy="30.3" r="14"/><circle class="cls-2" cx="47.5" cy="50.3" r="14"/><circle class="cls-3" cx="27.7" cy="50.3" r="14"/><path class="cls-4" d="M33.4,30.3a14.06,14.06,0,0,1,4.2-10,14,14,0,1,0-9.9,23.9,13.74,13.74,0,0,0,9.9-4.1A13.1,13.1,0,0,1,33.4,30.3Z"/><g class="cls-5"><path class="cls-6" d="M80.9,31.6a2.86,2.86,0,0,1,.5,1.7,2.35,2.35,0,0,1-1,2.2,4.65,4.65,0,0,1-2.8.7H73.8V25.8h3.5c2.3,0,3.5.9,3.5,2.8a2.68,2.68,0,0,1-.2,1.1c-.2.3-.3.5-.5.6s-.3.3-.4.3A10.59,10.59,0,0,1,80.9,31.6ZM75,30.3h2.6a3.34,3.34,0,0,0,1.5-.3,1.38,1.38,0,0,0,.6-1.3,1.56,1.56,0,0,0-.6-1.4,2.67,2.67,0,0,0-1.7-.4H75Zm4.6,4.5a1.65,1.65,0,0,0,.7-1.6,1.49,1.49,0,0,0-.7-1.5,3.58,3.58,0,0,0-1.9-.4H75v3.8h2.7A3.63,3.63,0,0,0,79.6,34.8Z"/></g><g class="cls-5"><path class="cls-6" d="M88.8,29.4a4.94,4.94,0,0,1,.8,3.1H83.9a3.07,3.07,0,0,0,.7,2.2,2.41,2.41,0,0,0,1.9.8,5,5,0,0,0,2.7-.7V36a5.92,5.92,0,0,1-2.7.5,3.69,3.69,0,0,1-2.7-1.1,4.6,4.6,0,0,1-1-3.1,4.48,4.48,0,0,1,.9-3,3.62,3.62,0,0,1,5.1.1Zm-4.2.4a2.45,2.45,0,0,0-.7,1.7h4.5a3,3,0,0,0-.6-1.6,2.07,2.07,0,0,0-1.6-.5A2,2,0,0,0,84.6,29.8Z"/></g><g class="cls-5"><path class="cls-6" d="M91.2,36.2V25.5h1.1V36.3H91.2Z"/></g><g class="cls-5"><path class="cls-6" d="M100,28.8a1.55,1.55,0,0,1,.9,1.5v6.3a2.88,2.88,0,0,1-.7,2,3.67,3.67,0,0,1-2.6.8,3.08,3.08,0,0,1-1-.1c-.3-.1-.6-.1-.8-.2a2.14,2.14,0,0,0-.6-.1V37.9c.4.1.8.2,1.1.3a3.08,3.08,0,0,0,1,.1,2.89,2.89,0,0,0,1.9-.5,1.66,1.66,0,0,0,.5-1.2V36c-.3.1-.7.2-1.1.3a3.75,3.75,0,0,1-1,.1,3.34,3.34,0,0,1-2.7-1,4.37,4.37,0,0,1-.9-2.9,4.21,4.21,0,0,1,1.1-3.3,4,4,0,0,1,2.7-.9A4.77,4.77,0,0,1,100,28.8Zm-4.2,5.9a2.2,2.2,0,0,0,1.8.8,4.48,4.48,0,0,0,1.1-.1,3,3,0,0,0,1-.4V30.5a.79.79,0,0,0-.5-.8,2.36,2.36,0,0,0-1.3-.2,2.23,2.23,0,0,0-2.1.9,4.14,4.14,0,0,0-.6,2.3A3.61,3.61,0,0,0,95.8,34.7Z"/></g><g class="cls-5"><path class="cls-6" d="M102.8,25.8H104V27h-1.2Zm.1,2.6H104v7.8h-1.1Z"/></g><g class="cls-5"><path class="cls-6" d="M106.9,36.3a6.12,6.12,0,0,1-1.2-.5V34.6a6.87,6.87,0,0,0,1.3.6,3.73,3.73,0,0,0,1.2.2,2.77,2.77,0,0,0,1.3-.3,1.05,1.05,0,0,0,.5-.9.78.78,0,0,0-.3-.7c-.2-.1-.5-.3-.9-.5l-.4-.2a7.17,7.17,0,0,1-1.4-.5,2.36,2.36,0,0,1-.9-.6,2.14,2.14,0,0,1-.4-1.2,1.59,1.59,0,0,1,.4-1.2,2.29,2.29,0,0,1,1-.7,3,3,0,0,1,1.3-.2,3.75,3.75,0,0,1,1.1.1,5.13,5.13,0,0,1,1.2.5v1a5.13,5.13,0,0,0-1.2-.5,3,3,0,0,0-1-.2,2.38,2.38,0,0,0-1.2.3.89.89,0,0,0-.5.8,1.45,1.45,0,0,0,.2.7,2.09,2.09,0,0,0,.6.4,6.21,6.21,0,0,0,1,.3,7.26,7.26,0,0,1,1.2.5,2.41,2.41,0,0,1,.8.6,1.9,1.9,0,0,1,.4,1.2,1.84,1.84,0,0,1-.4,1.3,3.13,3.13,0,0,1-1.1.8,3.53,3.53,0,0,1-1.4.3A6,6,0,0,1,106.9,36.3Z"/></g><g class="cls-5"><path class="cls-6" d="M113.4,35.5a3.87,3.87,0,0,1-1.1-3.1,3.87,3.87,0,0,1,1.1-3.1,3.92,3.92,0,0,1,2.6-.9,5.87,5.87,0,0,1,2.3.4v1.1a5.38,5.38,0,0,0-2.2-.4,2.44,2.44,0,0,0-2,.7,3.4,3.4,0,0,0-.6,2.2,3.71,3.71,0,0,0,.6,2.3,2.44,2.44,0,0,0,2,.7,5.38,5.38,0,0,0,2.2-.4v1.1a5.87,5.87,0,0,1-2.3.4A4.61,4.61,0,0,1,113.4,35.5Z"/></g><g class="cls-5"><path class="cls-6" d="M125.6,29.1a3.56,3.56,0,0,1,.8,2.5v4.6h-1.1V31.6a2.86,2.86,0,0,0-.5-1.7,1.75,1.75,0,0,0-1.5-.6,4.56,4.56,0,0,0-2.2.6v6.3H120V25h1.1v4a6.12,6.12,0,0,1,1.2-.5,5,5,0,0,1,1.2-.2A3,3,0,0,1,125.6,29.1Z"/></g><g class="cls-5"><path class="cls-6" d="M134.1,29.4a4.94,4.94,0,0,1,.8,3.1h-5.7a3.07,3.07,0,0,0,.7,2.2,2.41,2.41,0,0,0,1.9.8,5,5,0,0,0,2.7-.7V36a5.92,5.92,0,0,1-2.7.5,3.69,3.69,0,0,1-2.7-1.1,4.6,4.6,0,0,1-1-3.1,4.48,4.48,0,0,1,.9-3,3,3,0,0,1,2.5-1A3.31,3.31,0,0,1,134.1,29.4Zm-4.2.4a2.45,2.45,0,0,0-.7,1.7h4.5a3,3,0,0,0-.6-1.6,2.07,2.07,0,0,0-1.6-.5A1.93,1.93,0,0,0,129.9,29.8Z"/></g><g class="cls-5"><path class="cls-6" d="M149.1,25.8l-4,10.4H144l-4-10.4h1.2l3.4,8.9,3.3-8.9Z"/></g><g class="cls-5"><path class="cls-6" d="M155.2,29.4a4.94,4.94,0,0,1,.8,3.1h-5.7a3.07,3.07,0,0,0,.7,2.2,2.41,2.41,0,0,0,1.9.8,5,5,0,0,0,2.7-.7V36a5.92,5.92,0,0,1-2.7.5,3.69,3.69,0,0,1-2.7-1.1,4.6,4.6,0,0,1-1-3.1,4.48,4.48,0,0,1,.9-3,3.62,3.62,0,0,1,5.1.1Zm-4.2.4a2.45,2.45,0,0,0-.7,1.7h4.5a3,3,0,0,0-.6-1.6,2.07,2.07,0,0,0-1.6-.5A2,2,0,0,0,151,29.8Z"/></g><g class="cls-5"><path class="cls-6" d="M157.6,29.1a10.31,10.31,0,0,1,1.6-.5,6.93,6.93,0,0,1,2-.3,1.09,1.09,0,0,1,.5.1v1h-.8a3.4,3.4,0,0,0-1,.1,10.5,10.5,0,0,0-1.3.2v6.6h-1.1V29.1Z"/></g><g class="cls-5"><path class="cls-6" d="M168.6,29.4a4.94,4.94,0,0,1,.8,3.1h-5.7a3.07,3.07,0,0,0,.7,2.2,2.41,2.41,0,0,0,1.9.8,5,5,0,0,0,2.7-.7V36a5.92,5.92,0,0,1-2.7.5,3.69,3.69,0,0,1-2.7-1.1,4.14,4.14,0,0,1-1-3.1,4.48,4.48,0,0,1,.9-3,3.62,3.62,0,0,1,5.1.1Zm-4.2.4a2.45,2.45,0,0,0-.7,1.7h4.5a3,3,0,0,0-.6-1.6,2.35,2.35,0,0,0-1.6-.5A2,2,0,0,0,164.4,29.8Z"/></g><g class="cls-5"><path class="cls-6" d="M174.3,28.3a3.29,3.29,0,0,1,2.4.7,2.82,2.82,0,0,1,.7,2.1v5.1h-1.1V31.1q0-1.8-2.1-1.8a7.47,7.47,0,0,0-2,.3v6.6H171V29A7.25,7.25,0,0,1,174.3,28.3Z"/></g><g class="cls-5"><path class="cls-6" d="M179.4,25.8h1.2V27h-1.2Zm0,2.6h1.1v7.8h-1.1Z"/></g><g class="cls-5"><path class="cls-6" d="M188.2,28.8a1.55,1.55,0,0,1,.9,1.5v6.3a2.88,2.88,0,0,1-.7,2,3.67,3.67,0,0,1-2.6.8,3.08,3.08,0,0,1-1-.1c-.3-.1-.6-.1-.8-.2a1,1,0,0,0-.4-.1V37.9c.4.1.8.2,1.1.3a3.08,3.08,0,0,0,1,.1,2.89,2.89,0,0,0,1.9-.5,1.66,1.66,0,0,0,.5-1.2V36c-.3.1-.7.2-1.1.3a3.75,3.75,0,0,1-1,.1,3.34,3.34,0,0,1-2.7-1,4.37,4.37,0,0,1-.9-2.9,4.21,4.21,0,0,1,1.1-3.3,4,4,0,0,1,2.7-.9A4.55,4.55,0,0,1,188.2,28.8ZM184,34.7a2.2,2.2,0,0,0,1.8.8,4.48,4.48,0,0,0,1.1-.1,3,3,0,0,0,1-.4V30.5a.79.79,0,0,0-.5-.8,2.36,2.36,0,0,0-1.3-.2,2.23,2.23,0,0,0-2.1.9,5.19,5.19,0,0,0-.6,2.3A6.64,6.64,0,0,0,184,34.7Z"/></g><g class="cls-5"><path class="cls-6" d="M191,25.8h1.2V27H191Zm.1,2.6h1.1v7.8h-1.1Z"/></g><g class="cls-5"><path class="cls-6" d="M197.6,28.3a3.29,3.29,0,0,1,2.4.7,2.82,2.82,0,0,1,.7,2.1v5.1h-1.1V31.1q0-1.8-2.1-1.8a7.47,7.47,0,0,0-2,.3v6.6h-1.1V29A6.57,6.57,0,0,1,197.6,28.3Z"/></g><g class="cls-5"><path class="cls-6" d="M208.3,28.8a1.55,1.55,0,0,1,.9,1.5v6.3a2.57,2.57,0,0,1-.8,2,3.67,3.67,0,0,1-2.6.8,3.08,3.08,0,0,1-1-.1c-.3-.1-.6-.1-.8-.2a1,1,0,0,0-.4-.1V37.9c.4.1.8.2,1.1.3a3.08,3.08,0,0,0,1,.1,2.89,2.89,0,0,0,1.9-.5,1.66,1.66,0,0,0,.5-1.2V36c-.3.1-.7.2-1.1.3a3.75,3.75,0,0,1-1,.1,3.34,3.34,0,0,1-2.7-1,4.37,4.37,0,0,1-.9-2.9,4.21,4.21,0,0,1,1.1-3.3,4,4,0,0,1,2.7-.9A4.65,4.65,0,0,1,208.3,28.8Zm-4.2,5.9a2.2,2.2,0,0,0,1.8.8,4.48,4.48,0,0,0,1.1-.1,3,3,0,0,0,1-.4V30.5a.79.79,0,0,0-.5-.8,2.36,2.36,0,0,0-1.3-.2,2.23,2.23,0,0,0-2.1.9,4.14,4.14,0,0,0-.6,2.3A3.61,3.61,0,0,0,204.1,34.7Z"/></g><g class="cls-5"><path class="cls-6" d="M80.8,45.2,77.5,53H76.4l-3.3-7.8h1.2l2.8,6.6,2.7-6.6Z"/></g><g class="cls-5"><path class="cls-6" d="M87.3,45.7a2.27,2.27,0,0,1,.8,1.9v3.8a1.39,1.39,0,0,1-.9,1.5,6,6,0,0,1-2.5.4,4.65,4.65,0,0,1-2.1-.5,2,2,0,0,1-.9-1.8,2.48,2.48,0,0,1,.8-2,3.28,3.28,0,0,1,2.1-.6,6.18,6.18,0,0,1,2.5.5V48c0-1.2-.7-1.8-2-1.8a7.84,7.84,0,0,0-1.4.2,2.73,2.73,0,0,0-1.2.6V45.9a3.2,3.2,0,0,1,1.3-.5,8.75,8.75,0,0,1,1.6-.2A1.9,1.9,0,0,1,87.3,45.7ZM86.4,52a.67.67,0,0,0,.5-.7V49.5c-.3-.1-.6-.2-1-.3a4.87,4.87,0,0,0-1.2-.1,2.08,2.08,0,0,0-1.5.4,1.48,1.48,0,0,0,.1,2.3,2.41,2.41,0,0,0,1.5.4A5.14,5.14,0,0,0,86.4,52Z"/></g><g class="cls-5"><path class="cls-6" d="M93.4,45a3.29,3.29,0,0,1,2.4.7,2.82,2.82,0,0,1,.7,2.1V53H95.4V47.9q0-1.8-2.1-1.8a7.47,7.47,0,0,0-2,.3V53H90.2V45.8A6.6,6.6,0,0,1,93.4,45Z"/></g><g class="cls-5"><path class="cls-6" d="M110.1,43.5l-6,8.4h6V53h-7.4V52l6.1-8.4h-5.9V42.5h7.3v1Z"/></g><g class="cls-5"><path class="cls-6" d="M111.7,42.5h1.2v1.2h-1.2Zm.1,2.7h1.1V53h-1.1Z"/></g><g class="cls-5"><path class="cls-6" d="M120.7,46.2a4.94,4.94,0,0,1,.8,3.1h-5.7a3.07,3.07,0,0,0,.7,2.2,2.41,2.41,0,0,0,1.9.8,5,5,0,0,0,2.7-.7v1.2a5.92,5.92,0,0,1-2.7.5,3.69,3.69,0,0,1-2.7-1.1,4.6,4.6,0,0,1-1-3.1,4.48,4.48,0,0,1,.9-3,3,3,0,0,1,2.5-1A2.79,2.79,0,0,1,120.7,46.2Zm-4.2.3a2.45,2.45,0,0,0-.7,1.7h4.5a3,3,0,0,0-.6-1.6,2.07,2.07,0,0,0-1.6-.5A2.36,2.36,0,0,0,116.5,46.5Z"/></g><g class="cls-5"><path class="cls-6" d="M127.8,53l-3.6-3.7V53h-1.1V42.2h1.1v5.9l3.2-2.9h1.4L125,48.6l4.4,4.4Z"/></g><g class="cls-5"><path class="cls-6" d="M135.8,46.2a4.94,4.94,0,0,1,.8,3.1h-5.7a3.07,3.07,0,0,0,.7,2.2,2.41,2.41,0,0,0,1.9.8,5,5,0,0,0,2.7-.7v1.2a5.92,5.92,0,0,1-2.7.5,3.69,3.69,0,0,1-2.7-1.1,4.6,4.6,0,0,1-1-3.1,4.48,4.48,0,0,1,.9-3,3,3,0,0,1,2.5-1A2.69,2.69,0,0,1,135.8,46.2Zm-4.2.3a2.45,2.45,0,0,0-.7,1.7h4.5a3,3,0,0,0-.6-1.6,2.07,2.07,0,0,0-1.6-.5A2.54,2.54,0,0,0,131.6,46.5Z"/><path class="cls-6" d="M142,45a3.29,3.29,0,0,1,2.4.7,2.82,2.82,0,0,1,.7,2.1V53H144V47.9q0-1.8-2.1-1.8a7.47,7.47,0,0,0-2,.3V53h-1.1V45.8A6.6,6.6,0,0,1,142,45Z"/></g><g class="cls-5"><path class="cls-6" d="M152.3,45.8a3.56,3.56,0,0,1,.8,2.5V53H152V48.4a2.86,2.86,0,0,0-.5-1.7,1.75,1.75,0,0,0-1.5-.6,4.56,4.56,0,0,0-2.2.6V53h-1.1V41.7h1.1v4a6.12,6.12,0,0,1,1.2-.5,5,5,0,0,1,1.2-.2A2.86,2.86,0,0,1,152.3,45.8Z"/><path class="cls-6" d="M156.4,52.4a2.87,2.87,0,0,1-.9-2.3V45.2h1.1v4.7a2.46,2.46,0,0,0,.5,1.7,2.36,2.36,0,0,0,1.6.6,2,2,0,0,0,1.6-.6,2.86,2.86,0,0,0,.5-1.7V45.2h1.1v4.9a2.87,2.87,0,0,1-.9,2.3,3.65,3.65,0,0,1-2.4.8A3.49,3.49,0,0,1,156.4,52.4Z"/></g><g class="cls-5"><path class="cls-6" d="M163.5,42.5h1.2v1.2h-1.2Zm.1,2.7h1.1V53h-1.1Z"/></g><g class="cls-5"><path class="cls-6" d="M167.6,53a6.12,6.12,0,0,1-1.2-.5V51.3a6.87,6.87,0,0,0,1.3.6,3.73,3.73,0,0,0,1.2.2,2.77,2.77,0,0,0,1.3-.3.87.87,0,0,0,.5-.9.78.78,0,0,0-.3-.7,3.6,3.6,0,0,0-.9-.5l-.4-.2a7.17,7.17,0,0,1-1.4-.5,2.36,2.36,0,0,1-.9-.6,2.14,2.14,0,0,1-.4-1.2,1.59,1.59,0,0,1,.4-1.2,2.29,2.29,0,0,1,1-.7,3,3,0,0,1,1.3-.2,3.75,3.75,0,0,1,1.1.1,5.13,5.13,0,0,1,1.2.5v1.1a5.13,5.13,0,0,0-1.2-.5,3,3,0,0,0-1-.2,2.38,2.38,0,0,0-1.2.3.89.89,0,0,0-.5.8,1.45,1.45,0,0,0,.2.7c.1.2.4.3.6.4a6.21,6.21,0,0,0,1,.3,7.26,7.26,0,0,1,1.2.5,2.41,2.41,0,0,1,.8.6,1.9,1.9,0,0,1,.4,1.2,1.84,1.84,0,0,1-.4,1.3,2.26,2.26,0,0,1-1.1.8,3.19,3.19,0,0,1-1.4.3C168.5,53.2,168,53.1,167.6,53Z"/></g><g class="cls-5"><path class="cls-6" d="M179.9,41.9v9.7c0,.5-.3.9-1,1.2a5.38,5.38,0,0,1-2.2.4,3.66,3.66,0,0,1-2.5-.9,4.21,4.21,0,0,1-1.1-3.3,4.37,4.37,0,0,1,.9-2.9,3.34,3.34,0,0,1,2.7-1,3.75,3.75,0,0,1,1,.1c.4.1.8.2,1.1.3V41.9Zm-1.2,4.7a4.18,4.18,0,0,0-1-.4,4.1,4.1,0,0,0-1.1-.1,2.2,2.2,0,0,0-1.8.8,3.28,3.28,0,0,0-.6,2.1,4.62,4.62,0,0,0,.5,2.3,2.08,2.08,0,0,0,1.9.9A5.21,5.21,0,0,0,178,52c.4-.1.6-.3.6-.5V46.6Z"/><path class="cls-6" d="M182.4,42.5h1.2v1.2h-1.2Zm0,2.7h1.1V53h-1.1Z"/></g><g class="cls-5"><path class="cls-6" d="M185.1,45.8a10.31,10.31,0,0,1,1.6-.5,6.93,6.93,0,0,1,2-.3,1.09,1.09,0,0,1,.5.1v1h-.8a3.4,3.4,0,0,0-1,.1,12.29,12.29,0,0,1-1.3.2V53H185V45.8Z"/></g><g class="cls-5"><path class="cls-6" d="M196.1,46.2a4.94,4.94,0,0,1,.8,3.1h-5.7a3.07,3.07,0,0,0,.7,2.2,2.56,2.56,0,0,0,1.9.8,5,5,0,0,0,2.7-.7v1.2a5.92,5.92,0,0,1-2.7.5,3.69,3.69,0,0,1-2.7-1.1,4.14,4.14,0,0,1-1-3.1,4.48,4.48,0,0,1,.9-3,3,3,0,0,1,2.5-1A2.69,2.69,0,0,1,196.1,46.2Zm-4.2.3a2.45,2.45,0,0,0-.7,1.7h4.5a3,3,0,0,0-.6-1.6,2.35,2.35,0,0,0-1.6-.5A2.54,2.54,0,0,0,191.9,46.5Z"/></g><g class="cls-5"><path class="cls-6" d="M199.3,52.2a3.87,3.87,0,0,1-1.1-3.1,3.87,3.87,0,0,1,1.1-3.1,3.92,3.92,0,0,1,2.6-.9,5.87,5.87,0,0,1,2.3.4v1.1a5.38,5.38,0,0,0-2.2-.4,2.44,2.44,0,0,0-2,.7,3.4,3.4,0,0,0-.6,2.2,3.71,3.71,0,0,0,.6,2.3,2.44,2.44,0,0,0,2,.7,5.38,5.38,0,0,0,2.2-.4v1.1a5.87,5.87,0,0,1-2.3.4A4.34,4.34,0,0,1,199.3,52.2Z"/></g><g class="cls-5"><path class="cls-6" d="M207.2,52.6a1.72,1.72,0,0,1-.5-1.5V46.2h-1.4v-1h1.4V43h1.1v2.2h2v1h-2v4.5a2.15,2.15,0,0,0,.2,1c.1.2.4.3.8.3a3,3,0,0,0,1-.2v1.1c-.1.1-.3.1-.6.1s-.4.1-.6.1A2,2,0,0,1,207.2,52.6Z"/></g><g class="cls-5"><path class="cls-6" d="M216.8,46.2a4.94,4.94,0,0,1,.8,3.1h-5.7a3.07,3.07,0,0,0,.7,2.2,2.41,2.41,0,0,0,1.9.8,5,5,0,0,0,2.7-.7v1.2a5.92,5.92,0,0,1-2.7.5,3.69,3.69,0,0,1-2.7-1.1,4.6,4.6,0,0,1-1-3.1,4.48,4.48,0,0,1,.9-3,3,3,0,0,1,2.5-1A2.61,2.61,0,0,1,216.8,46.2Zm-4.1.3a2.45,2.45,0,0,0-.7,1.7h4.5a3,3,0,0,0-.6-1.6,2.07,2.07,0,0,0-1.6-.5A2.2,2.2,0,0,0,212.7,46.5Z"/></g><g class="cls-5"><path class="cls-6" d="M220,52.4a2.87,2.87,0,0,1-.9-2.3V45.2h1.1v4.7a2.46,2.46,0,0,0,.5,1.7,2.36,2.36,0,0,0,1.6.6,2,2,0,0,0,1.6-.6,2.86,2.86,0,0,0,.5-1.7V45.2h1.1v4.9a2.87,2.87,0,0,1-.9,2.3,3.65,3.65,0,0,1-2.4.8A3.49,3.49,0,0,1,220,52.4Z"/></g><g class="cls-5"><path class="cls-6" d="M227.7,45.8a10.31,10.31,0,0,1,1.6-.5,6.93,6.93,0,0,1,2-.3,1.09,1.09,0,0,1,.5.1v1H231a3.4,3.4,0,0,0-1,.1,12.29,12.29,0,0,1-1.3.2V53h-1.1V45.8Z"/></g><g class="cls-5"><path class="cls-6" d="M234.1,53a6.12,6.12,0,0,1-1.2-.5V51.3a6.87,6.87,0,0,0,1.3.6,3.73,3.73,0,0,0,1.2.2,2.77,2.77,0,0,0,1.3-.3.87.87,0,0,0,.5-.9.78.78,0,0,0-.3-.7,3.6,3.6,0,0,0-.9-.5l-.4-.2a7.17,7.17,0,0,1-1.4-.5,2.36,2.36,0,0,1-.9-.6,2.14,2.14,0,0,1-.4-1.2,1.59,1.59,0,0,1,.4-1.2,2.29,2.29,0,0,1,1-.7,3,3,0,0,1,1.3-.2,3.75,3.75,0,0,1,1.1.1,5.13,5.13,0,0,1,1.2.5v1.1a5.13,5.13,0,0,0-1.2-.5,3,3,0,0,0-1-.2,2.38,2.38,0,0,0-1.2.3.89.89,0,0,0-.5.8,1.45,1.45,0,0,0,.2.7,2.09,2.09,0,0,0,.6.4,6.21,6.21,0,0,0,1,.3,7.26,7.26,0,0,1,1.2.5,2.41,2.41,0,0,1,.8.6,1.9,1.9,0,0,1,.4,1.2,1.84,1.84,0,0,1-.4,1.3,2.26,2.26,0,0,1-1.1.8,3.19,3.19,0,0,1-1.4.3C235,53.2,234.5,53.1,234.1,53Z"/></g><g class="cls-5"><path class="cls-6" d="M251.4,45.2,248.1,53H247l-3.3-7.8h1.2l2.8,6.6,2.7-6.6Z"/></g><g class="cls-5"><path class="cls-6" d="M258.1,46.1l-4.4,5.8h4.4v1h-5.7v-1l4.4-5.8h-4.2v-1h5.6v1Z"/></g><g class="cls-5"><path class="cls-6" d="M270.6,45.2,268,53h-1.1l-2-6.5L263,53h-1.1l-2.6-7.8h1.2l2,6.5,1.9-6.5h1.1l2,6.5,2.1-6.5Z"/></g><text class="cls-7" transform="translate(269.1 -0.77)"> </text></svg>