<svg xmlns="http://www.w3.org/2000/svg" viewBox="0 0 951.1 180"><defs><style>.cls-1{fill:#fff;}.cls-2{fill:#00acec;}</style></defs><title>twitter</title><g id="Ebene_2" data-name="Ebene 2"><g id="Ebene_1-2" data-name="Ebene 1"><path class="cls-1" d="M58.6,165C26.2,165,0,138.42,0,105.83l.2-67.9A16.91,16.91,0,0,1,17.3,21.29,16.92,16.92,0,0,1,33.8,37.93V63.36h42a17,17,0,0,1,0,33.9h-42v8.57a25.16,25.16,0,0,0,25.1,25.32H84.1a17,17,0,0,1,0,33.9h0L58.6,165Zm331.6,0c-32.4,0-58.4-26.53-58.4-59.12V37.93a16.8,16.8,0,1,1,33.6-.4V63.36h25.2a17,17,0,0,1,.4,33.9H365.4v8.57a25.16,25.16,0,0,0,25.1,25.32H399a17,17,0,0,1,0,33.9l-8.8-.1Zm88.1,0c-32.4,0-58.4-26.53-58.4-59.12V37.93a16.8,16.8,0,1,1,33.6,0h0V63.36h25.2a17,17,0,0,1,0,33.9H453.5v8.57a25.16,25.16,0,0,0,25.1,25.32h8.5a17,17,0,0,1,0,33.9l-8.8-.1ZM621.4,114.1c0-28,22.3-50.84,50.1-50.84h25.2a16.95,16.95,0,0,1,0,33.89H671.5a16.85,16.85,0,0,0-16.8,16.95h0L655,148A16.85,16.85,0,0,1,638.2,165h0A16.85,16.85,0,0,1,621.4,148h0V114.1ZM256.2,63.36a16.84,16.84,0,0,0-16.8,17h0V114.2a16.8,16.8,0,0,1-33.6,0V80.31a16.8,16.8,0,1,0-33.6-.41v34.3a16.8,16.8,0,1,1-33.6,0V80.31a16.8,16.8,0,1,0-33.6,0V114.2c0,28.05,22.5,50.85,50.4,50.85A49.91,49.91,0,0,0,189,152a49.91,49.91,0,0,0,33.6,13A50.61,50.61,0,0,0,273,114.2V80.31a16.84,16.84,0,0,0-16.8-17Z"/><path class="cls-1" d="M302.4,63.36a16.84,16.84,0,0,0-16.8,17h0V148.1a16.8,16.8,0,1,0,33.6,0V80.31A17,17,0,0,0,302.4,63.36Z"/><ellipse class="cls-1" cx="302.4" cy="37.93" rx="16.8" ry="16.95"/><path class="cls-2" d="M817.8,65.48c8.2-25.93,18.3-42.78,29.9-55,8.6-9.08,13.1-12,8-1.92a54.36,54.36,0,0,1,8-5.54c14-6.66,13-1.11,3.4,4.94,26.4-9.48,25.4,2.62-2.4,8.68,22.8.4,47,15,54,46.2,1,4.34-.2,3.94,4.2,4.64,9.4,1.72,18.3,1.62,27-1.21-.9,6.46-9.4,10.6-22.5,13.42-4.9,1-5.9.71,0,2.12a89.7,89.7,0,0,0,23.7,1.61C944.5,91.1,933.9,95,920.8,95.24a105.33,105.33,0,0,1-50.5,65.17c-55.5,31.78-136.3,27.14-176.8-30.57,26.6,21.09,66,25.73,95.2-3.63-19.2,0-24.1-14.43-8.9-22.3-14.4-.1-23.5-4.74-28.9-13-2-3.13-2.1-3.43,1.3-5.85,3.6-2.63,8.6-3.84,13.8-4.24-14.9-4.34-24-12.11-27.1-22.7-1-3.43-1.2-3.33,2.3-4.24A62.35,62.35,0,0,1,753,52.36c-11.7-7.16-18.7-15.94-20.5-25.63-1.7-9.18.1-6.76,6.8-4.13,30.3,11.6,60.6,24.21,78.5,42.88Z"/><path class="cls-1" d="M608.7,105.63c0,6-2.5,16.85-11.2,16.85H542.1a16.84,16.84,0,0,0,16.3,12.71h35.8a14.83,14.83,0,0,1,0,29.66H558.4c-27.8,0-50.4-22.9-50.4-55.08,0-28.15,22.6-46.61,50.4-46.61,27.8.2,50.3,19.16,50.3,42.47Zm-33.5-4.14c0-7.77-7.5-14.12-16.8-14.12s-16.8,6.35-16.8,14.12Z"/></g></g></svg>